<mxfile host="65bd71144e" modified="2023-11-17T15:55:30.058Z" agent="Mozilla/5.0 (Windows NT 10.0; Win64; x64) AppleWebKit/537.36 (KHTML, like Gecko) Code/1.84.2 Chrome/114.0.5735.289 Electron/25.9.2 Safari/537.36" etag="B8babjELzeXo5dai6fS9" version="22.1.3" type="embed">
    <diagram id="Q91hMCyBM__cLPV1unGs" name="Page-1">
        <mxGraphModel dx="2105" dy="495" grid="1" gridSize="10" guides="1" tooltips="1" connect="1" arrows="1" fold="1" page="1" pageScale="1" pageWidth="850" pageHeight="1100" math="0" shadow="0">
            <root>
                <mxCell id="0"/>
                <mxCell id="1" parent="0"/>
                <mxCell id="24" style="edgeStyle=none;html=1;endArrow=none;endFill=0;exitX=1;exitY=0.5;exitDx=0;exitDy=0;entryX=0;entryY=0.5;entryDx=0;entryDy=0;strokeWidth=3;" parent="1" source="18" target="19" edge="1">
                    <mxGeometry relative="1" as="geometry">
                        <mxPoint x="170" y="300" as="sourcePoint"/>
                        <mxPoint x="200" y="280" as="targetPoint"/>
                    </mxGeometry>
                </mxCell>
                <mxCell id="18" value="" style="ellipse;whiteSpace=wrap;html=1;aspect=fixed;fillColor=#000000;" parent="1" vertex="1">
                    <mxGeometry x="80" y="300" width="20" height="20" as="geometry"/>
                </mxCell>
                <mxCell id="23" style="edgeStyle=none;html=1;endArrow=none;endFill=0;entryX=1;entryY=1;entryDx=0;entryDy=0;exitX=0.05;exitY=0.3;exitDx=0;exitDy=0;strokeWidth=3;exitPerimeter=0;" parent="1" source="25" target="18" edge="1">
                    <mxGeometry relative="1" as="geometry">
                        <mxPoint x="170" y="380" as="targetPoint"/>
                        <mxPoint x="390" y="360" as="sourcePoint"/>
                    </mxGeometry>
                </mxCell>
                <mxCell id="19" value="" style="ellipse;whiteSpace=wrap;html=1;aspect=fixed;fillColor=#000000;" parent="1" vertex="1">
                    <mxGeometry x="210" y="288" width="20" height="20" as="geometry"/>
                </mxCell>
                <mxCell id="44" style="edgeStyle=none;html=1;exitX=1;exitY=1;exitDx=0;exitDy=0;entryX=0;entryY=1;entryDx=0;entryDy=0;endArrow=none;endFill=0;dashed=1;dashPattern=8 8;" parent="1" source="25" target="12" edge="1">
                    <mxGeometry relative="1" as="geometry"/>
                </mxCell>
                <mxCell id="29" style="edgeStyle=none;html=1;endArrow=none;endFill=0;strokeWidth=3;exitX=0.667;exitY=0.1;exitDx=0;exitDy=0;entryX=0.5;entryY=1;entryDx=0;entryDy=0;exitPerimeter=0;" parent="1" source="25" target="19" edge="1">
                    <mxGeometry relative="1" as="geometry">
                        <mxPoint x="280" y="350" as="sourcePoint"/>
                        <mxPoint x="220" y="310" as="targetPoint"/>
                    </mxGeometry>
                </mxCell>
                <mxCell id="25" value="" style="ellipse;whiteSpace=wrap;html=1;aspect=fixed;fillColor=#000000;" parent="1" vertex="1">
                    <mxGeometry x="170" y="370" width="20" height="20" as="geometry"/>
                </mxCell>
                <mxCell id="45" style="edgeStyle=none;html=1;exitX=1;exitY=0;exitDx=0;exitDy=0;entryX=0;entryY=0;entryDx=0;entryDy=0;endArrow=none;endFill=0;dashed=1;dashPattern=8 8;" parent="1" source="25" target="14" edge="1">
                    <mxGeometry relative="1" as="geometry">
                        <mxPoint x="210" y="405" as="sourcePoint"/>
                        <mxPoint x="150" y="440" as="targetPoint"/>
                    </mxGeometry>
                </mxCell>
                <mxCell id="46" style="edgeStyle=none;html=1;exitX=1;exitY=0.5;exitDx=0;exitDy=0;entryX=1;entryY=1;entryDx=0;entryDy=0;endArrow=none;endFill=0;dashed=1;dashPattern=8 8;" parent="1" source="19" edge="1" target="64">
                    <mxGeometry relative="1" as="geometry">
                        <mxPoint x="100" y="403" as="sourcePoint"/>
                        <mxPoint x="380" y="268" as="targetPoint"/>
                    </mxGeometry>
                </mxCell>
                <mxCell id="48" style="edgeStyle=none;html=1;exitX=0.5;exitY=0;exitDx=0;exitDy=0;entryX=0;entryY=0;entryDx=0;entryDy=0;endArrow=none;endFill=0;dashed=1;dashPattern=8 8;" parent="1" source="19" edge="1" target="65">
                    <mxGeometry relative="1" as="geometry">
                        <mxPoint x="280" y="278" as="sourcePoint"/>
                        <mxPoint x="240" y="178" as="targetPoint"/>
                    </mxGeometry>
                </mxCell>
                <mxCell id="49" style="edgeStyle=none;html=1;exitX=1;exitY=0;exitDx=0;exitDy=0;entryX=1;entryY=0;entryDx=0;entryDy=0;endArrow=none;endFill=0;dashed=1;dashPattern=8 8;" parent="1" source="18" edge="1" target="85">
                    <mxGeometry relative="1" as="geometry">
                        <mxPoint x="410" y="280" as="sourcePoint"/>
                        <mxPoint x="140" y="270" as="targetPoint"/>
                    </mxGeometry>
                </mxCell>
                <mxCell id="50" style="edgeStyle=none;html=1;exitX=0;exitY=0.5;exitDx=0;exitDy=0;entryX=0;entryY=1;entryDx=0;entryDy=0;endArrow=none;endFill=0;dashed=1;dashPattern=8 8;" parent="1" source="18" edge="1" target="83">
                    <mxGeometry relative="1" as="geometry">
                        <mxPoint x="107" y="313" as="sourcePoint"/>
                        <mxPoint y="270" as="targetPoint"/>
                    </mxGeometry>
                </mxCell>
                <mxCell id="56" value="" style="group" parent="1" vertex="1" connectable="0">
                    <mxGeometry x="290" y="325" width="140" height="110" as="geometry"/>
                </mxCell>
                <mxCell id="12" value="CPU" style="rounded=0;whiteSpace=wrap;html=1;fillStyle=auto;fillColor=#FFFFFF;fontSize=18;" parent="56" vertex="1">
                    <mxGeometry y="70" width="70" height="40" as="geometry"/>
                </mxCell>
                <mxCell id="13" value="QPU" style="rounded=0;whiteSpace=wrap;html=1;fillStyle=auto;fillColor=#FFFFFF;fontSize=18;" parent="56" vertex="1">
                    <mxGeometry x="70" y="70" width="70" height="40" as="geometry"/>
                </mxCell>
                <mxCell id="14" value="Qoala Runtime" style="rounded=0;whiteSpace=wrap;html=1;horizontal=1;verticalAlign=top;fillColor=#CCCCCC;fillStyle=auto;fontSize=18;" parent="56" vertex="1">
                    <mxGeometry width="140" height="70" as="geometry"/>
                </mxCell>
                <mxCell id="31" value="Network&lt;br style=&quot;font-size: 16px;&quot;&gt;stack" style="rounded=0;whiteSpace=wrap;html=1;fillStyle=auto;fillColor=#FFFFFF;fontSize=16;" parent="56" vertex="1">
                    <mxGeometry x="35" y="30" width="70" height="40" as="geometry"/>
                </mxCell>
                <mxCell id="62" value="" style="group" parent="1" vertex="1" connectable="0">
                    <mxGeometry x="250" y="150" width="140" height="110" as="geometry"/>
                </mxCell>
                <mxCell id="63" value="CPU" style="rounded=0;whiteSpace=wrap;html=1;fillStyle=auto;fillColor=#FFFFFF;fontSize=18;" parent="62" vertex="1">
                    <mxGeometry y="70" width="70" height="40" as="geometry"/>
                </mxCell>
                <mxCell id="64" value="QPU" style="rounded=0;whiteSpace=wrap;html=1;fillStyle=auto;fillColor=#FFFFFF;fontSize=18;" parent="62" vertex="1">
                    <mxGeometry x="70" y="70" width="70" height="40" as="geometry"/>
                </mxCell>
                <mxCell id="65" value="Qoala Runtime" style="rounded=0;whiteSpace=wrap;html=1;horizontal=1;verticalAlign=top;fillColor=#CCCCCC;fillStyle=auto;fontSize=18;" parent="62" vertex="1">
                    <mxGeometry width="140" height="70" as="geometry"/>
                </mxCell>
                <mxCell id="66" value="Network&lt;br style=&quot;font-size: 16px;&quot;&gt;stack" style="rounded=0;whiteSpace=wrap;html=1;fillStyle=auto;fillColor=#FFFFFF;fontSize=16;" parent="62" vertex="1">
                    <mxGeometry x="35" y="30" width="70" height="40" as="geometry"/>
                </mxCell>
                <mxCell id="82" value="" style="group" parent="1" vertex="1" connectable="0">
                    <mxGeometry x="-80" y="160" width="140" height="110" as="geometry"/>
                </mxCell>
                <mxCell id="83" value="CPU" style="rounded=0;whiteSpace=wrap;html=1;fillStyle=auto;fillColor=#FFFFFF;fontSize=18;" parent="82" vertex="1">
                    <mxGeometry y="70" width="70" height="40" as="geometry"/>
                </mxCell>
                <mxCell id="84" value="QPU" style="rounded=0;whiteSpace=wrap;html=1;fillStyle=auto;fillColor=#FFFFFF;fontSize=18;" parent="82" vertex="1">
                    <mxGeometry x="70" y="70" width="70" height="40" as="geometry"/>
                </mxCell>
                <mxCell id="85" value="Qoala Runtime" style="rounded=0;whiteSpace=wrap;html=1;horizontal=1;verticalAlign=top;fillColor=#CCCCCC;fillStyle=auto;fontSize=18;" parent="82" vertex="1">
                    <mxGeometry width="140" height="70" as="geometry"/>
                </mxCell>
                <mxCell id="86" value="Network&lt;br style=&quot;font-size: 16px;&quot;&gt;stack" style="rounded=0;whiteSpace=wrap;html=1;fillStyle=auto;fillColor=#FFFFFF;fontSize=16;" parent="82" vertex="1">
                    <mxGeometry x="35" y="30" width="70" height="40" as="geometry"/>
                </mxCell>
            </root>
        </mxGraphModel>
    </diagram>
</mxfile>